<svg xmlns="http://www.w3.org/2000/svg" width="32" height="32" viewBox="0 0 32 32" fill="none">
<g id="favicon">
<rect width="32" height="32" rx="16" fill="#0E1A08"/>
<path id="Subtract" fill-rule="evenodd" clip-rule="evenodd" d="M24.8913 10.5319C24.622 12.5425 23.8398 14.4189 22.6541 15.9996H24.9953V24.999H24.7886C23.0874 24.999 22.2367 24.999 21.4637 24.8955C19.4531 24.6262 17.5767 23.844 15.996 22.6583V24.9987H6.99656V24.792C6.99656 23.0908 6.99656 22.2402 7.1001 21.4671C7.36938 19.4565 8.15155 17.5801 9.33725 15.9994H6.99609V7H7.20279C8.90401 7 9.75463 7 10.5277 7.10353C12.5383 7.37281 14.4147 8.15498 15.9954 9.34069V7.00028H24.9948V7.20697C24.9948 8.9082 24.9948 9.75881 24.8913 10.5319ZM12.7699 13.3623C12.6227 13.651 12.6227 14.029 12.6227 14.7851V17.2149C12.6227 17.9709 12.6227 18.3489 12.7699 18.6377C12.8993 18.8917 13.1058 19.0982 13.3598 19.2276C13.6486 19.3748 14.0266 19.3748 14.7826 19.3748H17.2124C17.9685 19.3748 18.3465 19.3748 18.6352 19.2276C18.8892 19.0982 19.0958 18.8917 19.2252 18.6377C19.3723 18.3489 19.3723 17.9709 19.3723 17.2149V14.7851C19.3723 14.029 19.3723 13.651 19.2252 13.3623C19.0958 13.1083 18.8892 12.9017 18.6352 12.7723C18.3465 12.6252 17.9685 12.6252 17.2124 12.6252H14.7826C14.0266 12.6252 13.6486 12.6252 13.3598 12.7723C13.1058 12.9017 12.8993 13.1083 12.7699 13.3623Z" fill="#D8FF33"/>
</g>
</svg>