<svg width="229" height="42" viewBox="0 0 229 42" fill="none" xmlns="http://www.w3.org/2000/svg">
<path fill-rule="evenodd" clip-rule="evenodd" d="M20.9988 5.4609C17.3108 2.69167 12.9275 0.867424 8.24205 0.237447C6.44388 0.0012207 4.44897 0.0012207 0.48575 0.0012207H0V21H5.45956C2.69053 24.6879 0.866083 29.0714 0.236146 33.7567C0 35.5547 0 37.5496 0 41.5131V41.9987H20.9988V36.539C24.6867 39.3083 29.07 41.1325 33.7555 41.7625C35.5536 41.9987 37.5485 41.9987 41.5118 41.9987H41.9975V21H36.5379C39.307 17.3121 41.1314 12.9286 41.7614 8.24323C41.9975 6.44522 41.9975 4.45035 41.9975 0.48681V0.0012207H20.9988V5.4609ZM13.1242 18.1651C13.1242 16.4065 13.1242 15.5141 13.4655 14.8447C13.7673 14.2541 14.253 13.7685 14.8436 13.4667C15.5129 13.1254 16.4053 13.1254 18.164 13.1254H23.8335C25.5922 13.1254 26.4846 13.1254 27.1539 13.4667C27.7445 13.7685 28.2302 14.2541 28.532 14.8447C28.8733 15.5141 28.8733 16.4065 28.8733 18.1651V23.8348C28.8733 25.5935 28.8733 26.4859 28.532 27.1552C28.2302 27.7458 27.7445 28.2314 27.1539 28.5333C26.4846 28.8745 25.5922 28.8745 23.8335 28.8745H18.164C16.4053 28.8745 15.5129 28.8745 14.8436 28.5333C14.253 28.2314 13.7673 27.7458 13.4655 27.1552C13.1242 26.4859 13.1242 25.5935 13.1242 23.8348V18.1651Z" fill="#D8FF33"/>
<path d="M75.7792 7.4164H84.3757V12.4167H79.1128L71.8026 23.9267V34.2161H66.0412V23.9267L55.5681 7.4164H62.1433L68.7971 18.4407H69.0858L75.7792 7.4164Z" fill="#D8FF33"/>
<path d="M78.9289 14.556H84.3625V34.2161H78.9289V14.556Z" fill="#D8FF33"/>
<path fill-rule="evenodd" clip-rule="evenodd" d="M96.0561 30.4232C93.1951 30.4232 91.3184 28.6908 91.4232 25.646H105.388C105.532 24.9897 105.611 24.0317 105.611 23.113C105.611 17.7452 101.896 14.1885 96.0561 14.1885C90.2159 14.1885 85.9505 18.1914 85.9505 24.4385C85.9505 30.6857 90.0714 34.5835 96.1349 34.5835C101.24 34.5835 105.059 31.9324 105.768 28.0083H100.361C99.9539 29.3995 98.3397 30.4363 96.0561 30.4363V30.4232ZM95.8725 18.2964C98.5499 18.2964 100.138 19.6876 100.177 22.0499H91.4626C91.5677 19.8057 93.3396 18.2964 95.8725 18.2964Z" fill="#D8FF33"/>
<path d="M107.527 7.4164H112.96V34.2029H107.527V7.4164Z" fill="#D8FF33"/>
<path fill-rule="evenodd" clip-rule="evenodd" d="M130.402 18.3358H130.127C129.103 15.9471 126.78 14.1885 123.249 14.1885C118.184 14.1885 114.758 18.047 114.758 24.4779C114.758 30.9087 118.065 34.5835 123.21 34.5835C126.229 34.5835 128.985 33.2186 130.113 30.725H130.402L131.098 34.2161H135.836V7.4164H130.402V18.3358ZM130.416 25.1735C130.416 28.0739 128.473 30.095 125.231 30.095C122.291 30.095 120.349 28.1789 120.349 24.4385C120.349 20.9475 122.042 18.6639 125.31 18.6639C128.25 18.6639 130.416 20.4619 130.416 23.7036V25.1735Z" fill="#D8FF33"/>
<path d="M165.365 21.1706L167.898 7.4164H174.224L168.489 34.2161H160.588L155.811 14.9497H155.548L150.771 34.2161H142.844L137.148 7.4164H143.461L146.033 21.0919L147.096 27.8902H147.398L152.096 7.4164H159.341L164.079 27.9689H164.341L165.365 21.1706Z" fill="#D8FF33"/>
<path fill-rule="evenodd" clip-rule="evenodd" d="M191.561 29.2157V20.6194C191.561 16.3934 188.726 14.1885 183.004 14.1885C177.597 14.1885 174.106 16.984 174.224 21.1706H179.329C179.29 19.5169 180.616 18.4145 182.82 18.4145C184.842 18.4145 186.128 19.1101 186.128 21.0656V22.063L180.904 22.4305C176.048 22.798 173.043 24.7141 173.043 28.7564C173.043 32.2868 175.694 34.5966 179.618 34.5966C182.597 34.5966 185.209 33.2318 186.128 31.1844H186.39C186.574 33.3499 188.004 34.531 190.537 34.531C191.377 34.531 192.375 34.3867 193.294 34.1636V30.4101C193.11 30.4888 192.821 30.515 192.637 30.515C191.797 30.515 191.574 29.8588 191.574 29.2288L191.561 29.2157ZM186.128 26.2759C186.128 28.7433 184.33 30.4625 181.613 30.4625C179.776 30.4625 178.568 29.7276 178.568 28.1789C178.568 26.7484 179.526 25.8953 181.915 25.7116L186.141 25.3047V26.2628L186.128 26.2759Z" fill="#D8FF33"/>
<path d="M200.381 18.4145C201.417 15.3303 204.383 13.926 207.953 14.3329H207.94V19.2151C203.097 18.7032 200.446 20.9475 200.446 26.0922V34.2161H194.973V14.556H199.751L200.157 18.4145H200.381Z" fill="#D8FF33"/>
<path fill-rule="evenodd" clip-rule="evenodd" d="M223.532 7.4164V18.3358H223.243C222.219 15.9471 219.896 14.1885 216.366 14.1885C211.3 14.1885 207.874 18.047 207.874 24.4779C207.874 30.9087 211.182 34.5835 216.327 34.5835C219.345 34.5835 222.101 33.2186 223.23 30.725H223.519L224.214 34.2161H228.952V7.4164H223.532ZM223.532 25.1735C223.532 28.0739 221.589 30.095 218.348 30.095C215.408 30.095 213.465 28.1789 213.465 24.4385C213.465 20.9475 215.158 18.6639 218.426 18.6639C221.366 18.6639 223.532 20.4619 223.532 23.7036V25.1735Z" fill="#D8FF33"/>
</svg>
